<?xml version="1.0" encoding="utf-8"?>
<!-- Generator: Adobe Illustrator 21.1.0, SVG Export Plug-In . SVG Version: 6.00 Build 0)  -->
<svg version="1.1" id="Layer_1" xmlns="http://www.w3.org/2000/svg" xmlns:xlink="http://www.w3.org/1999/xlink" x="0px" y="0px"
	 viewBox="0 0 318.9 363.9" style="enable-background:new 0 0 318.9 363.9;" xml:space="preserve">
<style type="text/css">
	.st0{fill:none;stroke:#141414;stroke-miterlimit:10;}
	.st1{fill:none;}
	.st2{fill:#141414;}
	.st3{font-family:'Montserrat-Light';}
	.st4{font-size:36px;}
	.st5{font-family:'Montserrat-Regular';}
	.st6{font-size:21px;}
	.st7{font-size:18px;}
	.st8{font-family:'PTSerif-Regular';}
	.st9{font-size:16px;}
	.st10{letter-spacing:5;}
	.st11{letter-spacing:1;}
	.st12{letter-spacing:4;}
	.st13{letter-spacing:2;}
</style>
<title>education_img</title>
<line class="st0" x1="2.5" y1="45.4" x2="3.5" y2="355.4"/>
<line class="st1" x1="2.5" y1="45.4" x2="3.5" y2="355.4"/>
<line class="st0" x1="3" y1="45.4" x2="182.5" y2="45.4"/>
<line class="st1" x1="3" y1="45.4" x2="182.5" y2="45.4"/>
<text transform="matrix(1 0 0 1 0 30.6)" class="st2 st3 st4">Edu</text>
<text transform="matrix(1 0 0 1 72.11 30.6)" class="st2 st3 st4">c</text>
<text transform="matrix(1 0 0 1 91.55 30.6)" class="st2 st3 st4">ation</text>
<text transform="matrix(1 0 0 1 24 82.47)" class="st2 st5 st6">San Diego Sta</text>
<text transform="matrix(1 0 0 1 171.17 82.47)" class="st2 st5 st6">t</text>
<text transform="matrix(1 0 0 1 179.57 82.47)" class="st2 st5 st6">e Uni</text>
<text transform="matrix(1 0 0 1 234.06 82.47)" class="st2 st5 st6">v</text>
<text transform="matrix(1 0 0 1 244.6 82.47)" class="st2 st5 st6">ersity</text>
<text transform="matrix(1 0 0 1 24 112.47)" class="st2 st3 st7">M.A. in Politi</text>
<text transform="matrix(1 0 0 1 133.96 112.47)" class="st2 st3 st7">c</text>
<text transform="matrix(1 0 0 1 143.68 112.47)" class="st2 st3 st7">al Scien</text>
<text transform="matrix(1 0 0 1 213.45 112.47)" class="st2 st3 st7">c</text>
<text transform="matrix(1 0 0 1 223.26 112.47)" class="st2 st3 st7">e</text>
<text transform="matrix(1 0 0 1 24 142.47)" class="st2 st8 st9">Graduated</text>
<text transform="matrix(1 0 0 1 98.24 142.47)" class="st2 st8 st9 st10"> </text>
<text transform="matrix(1 0 0 1 107.57 142.47)" class="st2 st8 st9">from</text>
<text transform="matrix(1 0 0 1 141.84 142.47)" class="st2 st8 st9 st10"> </text>
<text transform="matrix(1 0 0 1 151.17 142.47)" class="st2 st8 st9">SDSU</text>
<text transform="matrix(1 0 0 1 190.4 142.47)" class="st2 st8 st9 st10"> </text>
<text transform="matrix(1 0 0 1 199.73 142.47)" class="st2 st8 st9">with</text>
<text transform="matrix(1 0 0 1 231.52 142.47)" class="st2 st8 st9 st10"> </text>
<text transform="matrix(1 0 0 1 240.85 142.47)" class="st2 st8 st9">a</text>
<text transform="matrix(1 0 0 1 248.93 142.47)" class="st2 st8 st9 st10"> </text>
<text transform="matrix(1 0 0 1 258.26 142.47)" class="st2 st8 st9">M.A</text>
<text transform="matrix(1 0 0 1 287.52 142.47)" class="st2 st8 st9">.</text>
<text transform="matrix(1 0 0 1 291.35 142.47)" class="st2 st8 st9 st10"> </text>
<text transform="matrix(1 0 0 1 300.68 142.47)" class="st2 st8 st9">in </text>
<text transform="matrix(1 0 0 1 24 157.47)" class="st2 st8 st9">P</text>
<text transform="matrix(1 0 0 1 33.06 157.47)" class="st2 st8 st9">olitical</text>
<text transform="matrix(1 0 0 1 82.64 157.47)" class="st2 st8 st9 st11"> </text>
<text transform="matrix(1 0 0 1 87.79 157.47)" class="st2 st8 st9">Scien</text>
<text transform="matrix(1 0 0 1 126.19 157.47)" class="st2 st8 st9">c</text>
<text transform="matrix(1 0 0 1 133.35 157.47)" class="st2 st8 st9">e</text>
<text transform="matrix(1 0 0 1 141.4 157.47)" class="st2 st8 st9 st11"> </text>
<text transform="matrix(1 0 0 1 146.55 157.47)" class="st2 st8 st9">f</text>
<text transform="matrix(1 0 0 1 151.73 157.47)" class="st2 st8 st9">ocusing</text>
<text transform="matrix(1 0 0 1 206.88 157.47)" class="st2 st8 st9 st11"> </text>
<text transform="matrix(1 0 0 1 212.03 157.47)" class="st2 st8 st9">on</text>
<text transform="matrix(1 0 0 1 230.38 157.47)" class="st2 st8 st9 st11"> </text>
<text transform="matrix(1 0 0 1 235.53 157.47)" class="st2 st8 st9">democratic </text>
<text transform="matrix(1 0 0 1 24 172.47)" class="st2 st8 st9">theo</text>
<text transform="matrix(1 0 0 1 56.22 172.47)" class="st2 st8 st9">r</text>
<text transform="matrix(1 0 0 1 62.64 172.47)" class="st2 st8 st9">y and pra</text>
<text transform="matrix(1 0 0 1 128.24 172.47)" class="st2 st8 st9">c</text>
<text transform="matrix(1 0 0 1 135.68 172.47)" class="st2 st8 st9">ti</text>
<text transform="matrix(1 0 0 1 146.43 172.47)" class="st2 st8 st9">c</text>
<text transform="matrix(1 0 0 1 153.6 172.47)" class="st2 st8 st9">e</text>
<text transform="matrix(1 0 0 1 161.64 172.47)" class="st2 st8 st9">.</text>
<text transform="matrix(1 0 0 1 24 233.47)" class="st2 st5 st6">Cali</text>
<text transform="matrix(1 0 0 1 63.46 233.47)" class="st2 st5 st6">f</text>
<text transform="matrix(1 0 0 1 70.64 233.47)" class="st2 st5 st6">ornia Sta</text>
<text transform="matrix(1 0 0 1 164.36 233.47)" class="st2 st5 st6">t</text>
<text transform="matrix(1 0 0 1 172.76 233.47)" class="st2 st5 st6">e Uni</text>
<text transform="matrix(1 0 0 1 227.26 233.47)" class="st2 st5 st6">v</text>
<text transform="matrix(1 0 0 1 237.8 233.47)" class="st2 st5 st6">ersity, </text>
<text transform="matrix(1 0 0 1 24 255.47)" class="st2 st5 st6">Long Beach</text>
<text transform="matrix(1 0 0 1 24 285.47)" class="st2 st3 st7">B.A. in Politi</text>
<text transform="matrix(1 0 0 1 130.04 285.47)" class="st2 st3 st7">c</text>
<text transform="matrix(1 0 0 1 139.76 285.47)" class="st2 st3 st7">al Scien</text>
<text transform="matrix(1 0 0 1 209.52 285.47)" class="st2 st3 st7">c</text>
<text transform="matrix(1 0 0 1 219.33 285.47)" class="st2 st3 st7">e</text>
<text transform="matrix(1 0 0 1 24 315.47)" class="st2 st8 st9">Graduated</text>
<text transform="matrix(1 0 0 1 98.24 315.47)" class="st2 st8 st9 st12"> </text>
<text transform="matrix(1 0 0 1 106.74 315.47)" class="st2 st8 st9">from</text>
<text transform="matrix(1 0 0 1 141.01 315.47)" class="st2 st8 st9 st12"> </text>
<text transform="matrix(1 0 0 1 149.5 315.47)" class="st2 st8 st9">CSULB</text>
<text transform="matrix(1 0 0 1 197.76 315.47)" class="st2 st8 st9 st12"> </text>
<text transform="matrix(1 0 0 1 206.26 315.47)" class="st2 st8 st9">with</text>
<text transform="matrix(1 0 0 1 238.05 315.47)" class="st2 st8 st9 st12"> </text>
<text transform="matrix(1 0 0 1 246.55 315.47)" class="st2 st8 st9">a</text>
<text transform="matrix(1 0 0 1 254.63 315.47)" class="st2 st8 st9 st12"> </text>
<text transform="matrix(1 0 0 1 263.12 315.47)" class="st2 st8 st9">B.A</text>
<text transform="matrix(1 0 0 1 288.35 315.47)" class="st2 st8 st9">.</text>
<text transform="matrix(1 0 0 1 292.18 315.47)" class="st2 st8 st9 st12"> </text>
<text transform="matrix(1 0 0 1 300.68 315.47)" class="st2 st8 st9">in </text>
<text transform="matrix(1 0 0 1 24 330.47)" class="st2 st8 st9">P</text>
<text transform="matrix(1 0 0 1 33.06 330.47)" class="st2 st8 st9">olitical</text>
<text transform="matrix(1 0 0 1 82.64 330.47)" class="st2 st8 st9 st13"> </text>
<text transform="matrix(1 0 0 1 88.62 330.47)" class="st2 st8 st9">Scien</text>
<text transform="matrix(1 0 0 1 127.02 330.47)" class="st2 st8 st9">c</text>
<text transform="matrix(1 0 0 1 134.19 330.47)" class="st2 st8 st9">e</text>
<text transform="matrix(1 0 0 1 142.24 330.47)" class="st2 st8 st9 st13"> </text>
<text transform="matrix(1 0 0 1 148.22 330.47)" class="st2 st8 st9">with</text>
<text transform="matrix(1 0 0 1 180.01 330.47)" class="st2 st8 st9 st13"> </text>
<text transform="matrix(1 0 0 1 185.99 330.47)" class="st2 st8 st9">minors</text>
<text transform="matrix(1 0 0 1 236.04 330.47)" class="st2 st8 st9 st13"> </text>
<text transform="matrix(1 0 0 1 242.02 330.47)" class="st2 st8 st9">in</text>
<text transform="matrix(1 0 0 1 256.34 330.47)" class="st2 st8 st9 st13"> </text>
<text transform="matrix(1 0 0 1 262.33 330.47)" class="st2 st8 st9">Histo</text>
<text transform="matrix(1 0 0 1 300.5 330.47)" class="st2 st8 st9">r</text>
<text transform="matrix(1 0 0 1 306.92 330.47)" class="st2 st8 st9">y </text>
<text transform="matrix(1 0 0 1 24 345.47)" class="st2 st8 st9">and Middle Eastern Studies</text>
<text transform="matrix(1 0 0 1 217.76 345.47)" class="st2 st8 st9">.</text>
</svg>
